# xmcd
# 
# Track frame offsets:
#     305
#     17238
#     36297
#     62445
#     79747
#     105202
#     126361
#     146666
#     165226
#     181863
#     197824
# 
# Disc length: 2882
# 
# Revision: 2
# Processed by: cddbd v1.5.2PL0 Copyright (c) Steve Scherf et al.
# Submitted via: fre:ac v1.0.27
# 
DISCID=8a0b3e0b
DTITLE=Various Artist - Believe - Songs of Faith
DYEAR=2006
DGENRE=Southern Gospel
TTITLE0=Jesus, Take The Wheel - Carrie Underwood
TTITLE1=Who You'd Be Today - Kenny Chesney
TTITLE2=God's Will - Martina McBride
TTITLE3=Stained Glass Masquerade - Casting Crowns
TTITLE4=Believe - Brooks and Dunn
TTITLE5=I've Always Loved You - Third Day
TTITLE6=Go Tell It On The Mountain - Sara Evans
TTITLE7=When I Get Where I'm Going - Brad Paisley (Featuring Dolly Parton)
TTITLE8=Postcards - Cindy Morgan
TTITLE9=This Is God - Phil Vassar
TTITLE10=Perfect Day - Josh Bates
EXTD=From Today's Top Country and Christian Artists
EXTT0=
EXTT1=
EXTT2=
EXTT3=
EXTT4=
EXTT5=
EXTT6=
EXTT7=
EXTT8=
EXTT9=
EXTT10=
PLAYORDER=
